<?xml version="1.0" encoding="UTF-8"?>
<svg id="Layer_2" xmlns="http://www.w3.org/2000/svg" version="1.1" viewBox="0 0 60 60">
  <!-- Generator: Adobe Illustrator 29.5.0, SVG Export Plug-In . SVG Version: 2.1.0 Build 137)  -->
  <defs>
    <style>
      .st0 {
        fill: #fff;
      }

      .st0, .st1 {
        fill-rule: evenodd;
      }

      .st1 {
        fill: #ccc;
      }
    </style>
  </defs>
  <g id="Layer_1-2">
    <g>
      <path class="st0" d="M46.8,60h-5.3v-19.6l-7.2-3.8v2.4l-7.2,3.8v-2.4l5.4-2.9v-6.4l-7.2-3.8-7.1,3.8v2.4l7.1-3.8v2.4l-7.1,3.8v2.4l7.1-3.8v2.4l-7.1,3.8v2.4l7.1-3.8v2.4l-7.1,3.8v2.4l7.1-3.8v2.4l-7.1,3.8v2.4l7.1-3.8v2.4l-7.1,3.8v2.4l7.1-3.8v2.4l-5.7,3.1c-3.8-1.5-6.5-5.3-6.5-9.6v-7.9c0-.4,0-.8,0-1.2v-.7c0-.4,0-.8,0-1.2h0c.2-6.3,2.1-11.1,5.7-14.2,3.1-2.7,7-4,11.9-4-.5,0,.2.1,2.1.3v-8.4c0-2.3-.8-3.5-2.5-3.5s-2.3,1.2-2.3,3.5v7h-14.9v-1.6c0-6.4,1.3-11,3.9-13.7C19.8,1.4,24,0,29.7,0s9.9,1.2,12.5,3.5c3.1,2.7,4.6,7.3,4.6,13.8v42.7h0ZM31,60h-3.9v-.3l7.2-3.8v2.4l-3.3,1.7ZM25.4,60h-1.9c-.2,0-.5,0-.7,0l2.6-1.4v1.4h0ZM27.1,57.3v-2.4l7.2-3.8v2.4l-7.2,3.8h0ZM27.1,52.5v-2.4l7.2-3.8v2.4l-7.2,3.8h0ZM27.1,47.7v-2.4l7.2-3.8v2.4l-7.2,3.8h0Z"/>
      <polygon class="st1" points="46.8 41 32.6 31.1 32.6 37.5 34.3 36.6 41.4 40.4 41.4 60 46.8 60 46.8 41"/>
    </g>
  </g>
</svg>