<?xml version="1.0" encoding="UTF-8"?>
<svg id="Layer_2" data-name="Layer 2" xmlns="http://www.w3.org/2000/svg" viewBox="0 0 951.71 239">
  <defs>
    <style>
      .cls-1 {
        fill: #fff;
      }

      .cls-2 {
        fill: #ff5e14;
        fill-rule: evenodd;
      }
    </style>
  </defs>
  <g id="Layer_1-2" data-name="Layer 1">
    <g>
      <g>
        <path class="cls-2" d="M133.71,239h-21.25v-77.89l-28.49-15.23v9.58l-28.49,15.23v-9.58l21.68-11.59v-25.45l-28.49-15.22-28.48,15.22v9.58l28.48-15.22v9.58l-28.48,15.22v9.58l28.48-15.22v9.58l-28.48,15.22v9.58l28.48-15.23v9.58l-28.48,15.22v9.58l28.48-15.22v9.58l-28.48,15.22v9.58l28.48-15.22v9.58l-28.48,15.22v9.58l28.48-15.23v9.58l-22.86,12.22C10.77,229.86.07,215.06.07,197.87v-31.37c-.05-1.55-.07-3.13-.07-4.72v-2.68c0-1.59.02-3.17.07-4.72v-.04H.07c.83-25.23,8.39-44.03,22.66-56.4,12.25-10.7,28.07-16.05,47.47-16.05-2.01,0,.78.45,8.36,1.34v-33.42c0-9.35-3.35-14.04-10.03-14.04-6.03,0-9.03,4.69-9.03,14.04v27.74H0v-6.35C0,45.79,5.23,27.57,15.71,16.55,26.19,5.51,42.79,0,65.52,0s39.32,4.68,49.8,14.03c12.25,10.93,18.39,29.2,18.39,54.82v170.15ZM71.02,239h-15.54v-1.28l28.49-15.22v9.58l-12.95,6.92ZM48.68,239h-7.47c-.97,0-1.94-.04-2.9-.11l10.37-5.54v5.65ZM55.48,228.15v-9.58l28.49-15.23v9.58l-28.49,15.23ZM55.48,208.99v-9.58l28.49-15.22v9.58l-28.49,15.22ZM55.48,189.84v-9.58l28.49-15.22v9.58l-28.49,15.22Z"/>
        <polygon class="cls-2" points="133.71 163.28 77.17 124.07 77.17 149.52 83.97 145.88 112.46 161.11 112.46 239 133.71 239 133.71 163.28"/>
      </g>
      <g>
        <path class="cls-1" d="M239.1,66.74l-17.25-35.2-32.62,66.63h-23.26L213.82.39h16.06l47.84,97.78h-23.26l-5.1-10.48h-45.68l10.27-20.95h25.14Z"/>
        <path class="cls-1" d="M344.08.39c23.28,0,34.92,8.15,34.92,24.45v3.49h-20.95v-3.49c0-2.33-4.66-3.49-13.97-3.49h-27.94c-9.31,0-13.97,1.16-13.97,3.49v48.89c0,2.33,4.66,3.49,13.97,3.49h27.94c9.31,0,13.97-1.16,13.97-3.49v-13.97h-38.41v-20.95h59.37v34.92c0,16.3-11.64,24.45-34.92,24.45h-27.94c-23.28,0-34.92-8.15-34.92-24.45V24.84c0-16.3,11.64-24.45,34.92-24.45h27.94Z"/>
        <path class="cls-1" d="M389.47.39h20.95v38.41h55.87V.39h20.95v97.78h-20.95v-38.41h-55.87v38.41h-20.95V.39Z"/>
        <path class="cls-1" d="M563.87,66.74l-17.25-35.2-32.62,66.63h-23.26L538.59.39h16.06l47.84,97.78h-23.26l-5.1-10.48h-45.68l10.27-20.95h25.14Z"/>
        <path class="cls-1" d="M172.96,141.22h62.86c23.28,0,34.92,8.15,34.92,24.45v10.48c0,5.63-1.4,10.29-4.19,13.97,2.79,3.68,4.19,8.34,4.19,13.97v10.48c0,16.3-11.64,24.45-34.92,24.45h-62.86v-97.78ZM193.91,162.18v17.46h41.91c9.31,0,13.97-1.16,13.97-3.49v-10.48c0-2.33-4.66-3.49-13.97-3.49h-41.91ZM193.91,200.59v17.46h41.91c9.31,0,13.97-1.16,13.97-3.49v-10.48c0-2.33-4.66-3.49-13.97-3.49h-41.91Z"/>
        <path class="cls-1" d="M344.08,218.05c9.31,0,13.97-1.16,13.97-3.49v-73.34h20.95v73.34c0,16.3-11.64,24.45-34.92,24.45h-27.94c-23.28,0-34.92-8.15-34.92-24.45v-73.34h20.95v73.34c0,2.33,4.66,3.49,13.97,3.49h27.94Z"/>
        <path class="cls-1" d="M410.43,141.22v97.78h-20.95v-97.78h20.95Z"/>
        <path class="cls-1" d="M420.9,141.22h20.95v76.83h76.83v20.95h-97.78v-97.78Z"/>
        <path class="cls-1" d="M529.16,141.22h62.86c23.28,0,34.92,8.15,34.92,24.45v48.89c0,16.3-11.64,24.45-34.92,24.45h-62.86v-97.78ZM550.11,162.18v55.87h41.91c9.31,0,13.97-1.16,13.97-3.49v-48.89c0-2.33-4.66-3.49-13.97-3.49h-41.91Z"/>
        <path class="cls-1" d="M735.2,141.22v20.95h-76.83v17.46h62.86v20.95h-62.86v17.46h76.83v20.95h-97.78v-97.78h97.78Z"/>
        <path class="cls-1" d="M766.63,162.18v76.83h-20.95v-97.78h62.86c23.28,0,34.92,8.15,34.92,24.45v10.48c0,14.25-8.92,22.28-26.75,24.1l32.55,38.76h-27.31l-49.8-59.37h36.39c9.31,0,13.97-1.16,13.97-3.49v-10.48c0-2.33-4.66-3.49-13.97-3.49h-41.91Z"/>
        <path class="cls-1" d="M916.79,141.22c23.28,0,34.92,8.15,34.92,24.45v3.49h-20.95v-3.49c0-2.33-4.66-3.49-13.97-3.49h-27.94c-9.31,0-13.97,1.16-13.97,3.49v10.48c0,2.33,4.66,3.49,13.97,3.49h27.94c23.28,0,34.92,8.15,34.92,24.45v10.48c0,16.3-11.64,24.45-34.92,24.45h-27.94c-23.28,0-34.92-8.15-34.92-24.45v-3.49h20.95v3.49c0,2.33,4.66,3.49,13.97,3.49h27.94c9.31,0,13.97-1.16,13.97-3.49v-10.48c0-2.33-4.66-3.49-13.97-3.49h-27.94c-23.28,0-34.92-8.15-34.92-24.45v-10.48c0-16.3,11.64-24.45,34.92-24.45h27.94Z"/>
      </g>
    </g>
  </g>
</svg>