<?xml version="1.0" encoding="UTF-8"?>
<svg id="Layer_1" xmlns="http://www.w3.org/2000/svg" version="1.1" viewBox="0 0 173 44">
  <!-- Generator: Adobe Illustrator 29.5.0, SVG Export Plug-In . SVG Version: 2.1.0 Build 137)  -->
  <defs>
    <style>
      .st0, .st1 {
        fill: #00316b;
      }

      .st1, .st2 {
        fill-rule: evenodd;
      }

      .st2 {
        fill: #00213d;
      }
    </style>
  </defs>
  <g>
    <path class="st1" d="M25.5,43.3h-3.8v-13.9l-5.1-2.7v1.7l-5.1,2.7v-1.7l3.9-2.1v-4.5l-5.1-2.7-5.1,2.7v1.7l5.1-2.7v1.7l-5.1,2.7v1.7l5.1-2.7v1.7l-5.1,2.7v1.7l5.1-2.7v1.7l-5.1,2.7v1.7l5.1-2.7v1.7l-5.1,2.7v1.7l5.1-2.7v1.7l-5.1,2.7v1.7l5.1-2.7v1.7l-4.1,2.2c-2.7-1.1-4.6-3.7-4.6-6.8v-5.6c0-.3,0-.6,0-.8v-.5c0-.3,0-.6,0-.8h0c.1-4.5,1.5-7.9,4-10.1,2.2-1.9,5-2.9,8.5-2.9-.4,0,.1,0,1.5.2v-6c0-1.7-.6-2.5-1.8-2.5s-1.6.8-1.6,2.5v4.9H1.7v-1.1c0-4.5.9-7.8,2.8-9.7C6.4,1.7,9.3.7,13.4.7s7,.8,8.9,2.5c2.2,1.9,3.3,5.2,3.3,9.8v30.3h0ZM14.4,43.3h-2.8v-.2l5.1-2.7v1.7l-2.3,1.2ZM10.4,43.3h-1.3c-.2,0-.3,0-.5,0l1.8-1v1h0ZM11.6,41.4v-1.7l5.1-2.7v1.7l-5.1,2.7ZM11.6,38v-1.7l5.1-2.7v1.7l-5.1,2.7ZM11.6,34.5v-1.7l5.1-2.7v1.7l-5.1,2.7Z"/>
    <polygon class="st2" points="25.5 29.8 15.5 22.8 15.5 27.4 16.7 26.7 21.8 29.4 21.8 43.3 25.5 43.3 25.5 29.8"/>
  </g>
  <g>
    <path class="st0" d="M44.3,12.6l-3.1-6.3-5.8,11.9h-4.1L39.8.8h2.9l8.5,17.4h-4.1l-.9-1.9h-8.1l1.8-3.7h4.5Z"/>
    <path class="st0" d="M63,.8c4.1,0,6.2,1.5,6.2,4.4v.6h-3.7v-.6c0-.4-.8-.6-2.5-.6h-5c-1.7,0-2.5.2-2.5.6v8.7c0,.4.8.6,2.5.6h5c1.7,0,2.5-.2,2.5-.6v-2.5h-6.8v-3.7h10.6v6.2c0,2.9-2.1,4.4-6.2,4.4h-5c-4.1,0-6.2-1.5-6.2-4.4V5.2c0-2.9,2.1-4.4,6.2-4.4h5,0Z"/>
    <path class="st0" d="M71.1.8h3.7v6.8h10V.8h3.7v17.4h-3.7v-6.8h-10v6.8h-3.7V.8h0Z"/>
    <path class="st0" d="M102.2,12.6l-3.1-6.3-5.8,11.9h-4.1L97.7.8h2.9l8.5,17.4h-4.1l-.9-1.9h-8.1l1.8-3.7h4.5Z"/>
    <path class="st0" d="M32.5,25.9h11.2c4.1,0,6.2,1.5,6.2,4.4v1.9c0,1-.2,1.8-.7,2.5.5.7.7,1.5.7,2.5v1.9c0,2.9-2.1,4.4-6.2,4.4h-11.2v-17.4h0ZM36.3,29.6v3.1h7.5c1.7,0,2.5-.2,2.5-.6v-1.9c0-.4-.8-.6-2.5-.6h-7.5ZM36.3,36.5v3.1h7.5c1.7,0,2.5-.2,2.5-.6v-1.9c0-.4-.8-.6-2.5-.6h-7.5Z"/>
    <path class="st0" d="M63,39.6c1.7,0,2.5-.2,2.5-.6v-13.1h3.7v13.1c0,2.9-2.1,4.4-6.2,4.4h-5c-4.1,0-6.2-1.5-6.2-4.4v-13.1h3.7v13.1c0,.4.8.6,2.5.6h5,0Z"/>
    <path class="st0" d="M74.8,25.9v17.4h-3.7v-17.4h3.7Z"/>
    <path class="st0" d="M76.7,25.9h3.7v13.7h13.7v3.7h-17.4v-17.4h0Z"/>
    <path class="st0" d="M96,25.9h11.2c4.1,0,6.2,1.5,6.2,4.4v8.7c0,2.9-2.1,4.4-6.2,4.4h-11.2v-17.4h0ZM99.7,29.6v10h7.5c1.7,0,2.5-.2,2.5-.6v-8.7c0-.4-.8-.6-2.5-.6h-7.5Z"/>
    <path class="st0" d="M132.7,25.9v3.7h-13.7v3.1h11.2v3.7h-11.2v3.1h13.7v3.7h-17.4v-17.4h17.4,0Z"/>
    <path class="st0" d="M138.3,29.6v13.7h-3.7v-17.4h11.2c4.1,0,6.2,1.5,6.2,4.4v1.9c0,2.5-1.6,4-4.8,4.3l5.8,6.9h-4.9l-8.9-10.6h6.5c1.7,0,2.5-.2,2.5-.6v-1.9c0-.4-.8-.6-2.5-.6h-7.5Z"/>
    <path class="st0" d="M165.1,25.9c4.1,0,6.2,1.5,6.2,4.4v.6h-3.7v-.6c0-.4-.8-.6-2.5-.6h-5c-1.7,0-2.5.2-2.5.6v1.9c0,.4.8.6,2.5.6h5c4.1,0,6.2,1.5,6.2,4.4v1.9c0,2.9-2.1,4.4-6.2,4.4h-5c-4.1,0-6.2-1.5-6.2-4.4v-.6h3.7v.6c0,.4.8.6,2.5.6h5c1.7,0,2.5-.2,2.5-.6v-1.9c0-.4-.8-.6-2.5-.6h-5c-4.1,0-6.2-1.5-6.2-4.4v-1.9c0-2.9,2.1-4.4,6.2-4.4h5Z"/>
  </g>
</svg>