<?xml version="1.0" encoding="UTF-8"?>
<svg id="Layer_2" xmlns="http://www.w3.org/2000/svg" version="1.1" viewBox="0 0 174 44">
  <!-- Generator: Adobe Illustrator 29.5.1, SVG Export Plug-In . SVG Version: 2.1.0 Build 141)  -->
  <defs>
    <style>
      .st0 {
        fill: #fff;
      }

      .st1 {
        fill: #ff5e14;
      }

      .st1, .st2 {
        fill-rule: evenodd;
      }

      .st2 {
        fill: #da4d26;
      }
    </style>
  </defs>
  <g id="Layer_1-2">
    <g>
      <g>
        <path class="st1" d="M24.4,43.9h-3.9v-14.2l-5.2-2.8v1.8l-5.2,2.8v-1.8l4-2.1v-4.7l-5.2-2.8-5.2,2.8v1.8l5.2-2.8v1.8l-5.2,2.8v1.8l5.2-2.8v1.8l-5.2,2.8v1.8l5.2-2.8v1.8l-5.2,2.8v1.8l5.2-2.8v1.8l-5.2,2.8v1.8l5.2-2.8v1.8l-5.2,2.8v1.8l5.2-2.8v1.8l-4.2,2.2C2,42.2,0,39.5,0,36.3v-8H0c.2-4.6,1.5-8.1,4.1-10.3,2.2-2,5.1-2.9,8.7-2.9-.4,0,.1,0,1.5.2v-6.1c0-1.7-.6-2.6-1.8-2.6s-1.7.9-1.7,2.6v5.1H0v-1.2C0,8.5,1,5.2,2.9,3.2,4.8,1.2,7.8.2,12,.2s7.2.9,9.1,2.6c2.2,2,3.4,5.3,3.4,10v31.1h-.1ZM13,43.9h-2.8v-.2l5.2-2.8v1.8l-2.4,1.3h0v-.1ZM8.9,43.9h-1.9l1.9-1v1ZM10.1,41.9v-1.8l5.2-2.8v1.8l-5.2,2.8ZM10.1,38.4v-1.8l5.2-2.8v1.8l-5.2,2.8ZM10.1,34.9v-1.8l5.2-2.8v1.8l-5.2,2.8Z"/>
        <polygon class="st2" points="24.4 30 14.1 22.8 14.1 27.5 15.4 26.8 20.6 29.6 20.6 43.9 24.4 43.9 24.4 30"/>
      </g>
      <g>
        <path class="st0" d="M43.7,12.4l-3.2-6.4-6,12.2h-4.3L39.1.2h2.9l8.7,17.9h-4.3l-.9-1.9h-8.4l1.9-3.8s4.7,0,4.7,0Z"/>
        <path class="st0" d="M62.9.2c4.3,0,6.4,1.5,6.4,4.5v.6h-3.8v-.6c0-.4-.9-.6-2.6-.6h-5.1c-1.7,0-2.6.2-2.6.6v8.9c0,.4.9.6,2.6.6h5.1c1.7,0,2.6-.2,2.6-.6v-2.6h-7v-3.8h10.9v6.4c0,3-2.1,4.5-6.4,4.5h-5.1c-4.3,0-6.4-1.5-6.4-4.5V4.7c0-3,2.1-4.5,6.4-4.5h5.1-.1Z"/>
        <path class="st0" d="M71.2.2h3.8v7h10.2V.2h3.8v17.9h-3.8v-7h-10.2v7h-3.8V.2Z"/>
        <path class="st0" d="M103.1,12.4l-3.2-6.4-6,12.2h-4.3L98.5.2h2.9l8.7,17.9h-4.3l-.9-1.9h-8.4l1.9-3.8s4.7,0,4.7,0Z"/>
        <path class="st0" d="M31.6,26h11.5c4.3,0,6.4,1.5,6.4,4.5v1.9c0,1-.3,1.9-.8,2.6.5.7.8,1.5.8,2.6v1.9c0,3-2.1,4.5-6.4,4.5h-11.5v-17.9h0v-.1ZM35.5,29.8v3.2h7.7c1.7,0,2.6-.2,2.6-.6v-1.9c0-.4-.9-.6-2.6-.6h-7.7v-.1ZM35.5,36.8v3.2h7.7c1.7,0,2.6-.2,2.6-.6v-1.9c0-.4-.9-.6-2.6-.6h-7.7v-.1Z"/>
        <path class="st0" d="M62.9,40c1.7,0,2.6-.2,2.6-.6v-13.4h3.8v13.4c0,3-2.1,4.5-6.4,4.5h-5.1c-4.3,0-6.4-1.5-6.4-4.5v-13.4h3.8v13.4c0,.4.9.6,2.6.6h5.1Z"/>
        <path class="st0" d="M75,26v17.9h-3.8v-17.9s3.8,0,3.8,0Z"/>
        <path class="st0" d="M77,26h3.8v14h14v3.8h-17.9v-17.9h0l.1.1Z"/>
        <path class="st0" d="M96.7,26h11.5c4.3,0,6.4,1.5,6.4,4.5v8.9c0,3-2.1,4.5-6.4,4.5h-11.5v-17.9h0ZM100.6,29.8v10.2h7.7c1.7,0,2.6-.2,2.6-.6v-8.9c0-.4-.9-.6-2.6-.6h-7.7v-.1Z"/>
        <path class="st0" d="M134.4,26v3.8h-14v3.2h11.5v3.8h-11.5v3.2h14v3.8h-17.9v-17.9h17.9v.1Z"/>
        <path class="st0" d="M140.2,29.8v14h-3.8v-17.9h11.5c4.3,0,6.4,1.5,6.4,4.5v1.9c0,2.6-1.6,4.1-4.9,4.4l6,7.1h-5l-9.1-10.9h6.7c1.7,0,2.6-.2,2.6-.6v-1.9c0-.4-.9-.6-2.6-.6h-7.8,0Z"/>
        <path class="st0" d="M167.6,26c4.3,0,6.4,1.5,6.4,4.5v.6h-3.8v-.6c0-.4-.9-.6-2.6-.6h-5.1c-1.7,0-2.6.2-2.6.6v1.9c0,.4.9.6,2.6.6h5.1c4.3,0,6.4,1.5,6.4,4.5v1.9c0,3-2.1,4.5-6.4,4.5h-5.1c-4.3,0-6.4-1.5-6.4-4.5v-.6h3.8v.6c0,.4.9.6,2.6.6h5.1c1.7,0,2.6-.2,2.6-.6v-1.9c0-.4-.9-.6-2.6-.6h-5.1c-4.3,0-6.4-1.5-6.4-4.5v-1.9c0-3,2.1-4.5,6.4-4.5,0,0,5.1,0,5.1,0Z"/>
      </g>
    </g>
  </g>
</svg>