<?xml version="1.0" encoding="UTF-8"?>
<svg id="Layer_2" xmlns="http://www.w3.org/2000/svg" version="1.1" viewBox="0 0 200 200">
  <!-- Generator: Adobe Illustrator 29.5.0, SVG Export Plug-In . SVG Version: 2.1.0 Build 137)  -->
  <defs>
    <style>
      .st0 {
        fill: #fff;
      }

      .st1 {
        fill: #ff5e14;
      }

      .st2 {
        fill: #cc3a00;
      }
    </style>
  </defs>
  <g>
    <path class="st1" d="M200,100c0,5.9-.5,11.7-1.5,17.4-8.2,46.9-49.2,82.6-98.5,82.6s-3,0-4.5-.1C42.3,197.5,0,153.7,0,100S44.8,0,100,0s100,44.8,100,100Z"/>
    <path class="st2" d="M101.5,111c-2.5-2.4-13.5-16.6-14.3-20.7-.5-.2-5,2-5.2,1.5,0,0-.8.2-.8.2-.6-.2.5-.4.2-.8,0,0-.9-.1-1-.1-.6-.2,1.2-1.8,1-2.3-.3-.5.1-.3,0-1-.5-2.2-6.6-3.1-7.1-5.3-.3-1.7-.7-3.4-.5-5.1.1-.8.4-1.6,1.1-2.1.7-.5,1.7-.4,2.1.4,0,0-1.1-10.4-1.1-9.6-.9-1-1.6-3.1-1.3-4.8.3-1.7.8-3.3,1.1-4.9.3-1.8.3-3.7.8-5.5.7-2.5,2.5-4.5,4.3-6.4,1.3-1.3,2.6-2.6,4-3.8,2.9-2.3,6.3-4,10-4.5,1.2-.1,2.4-.1,3.5-.1,1.3,0,2.7,0,4,0,1.3,0,2.7,0,4,0,1.2,0,2.4,0,3.5.1,3.7.4,7.1,2.1,10,4.5,1.3,1,2.4,2.1,3.5,3.3.2.2,41.6,41.6,75.2,75.2-8,45.8-48,80.7-96.2,80.7s-2.9,0-4.4,0c-21.7-21.8-54.1-52.9-54.3-53-2.8-2.5,10,6.9,10.4,3"/>
  </g>
  <path class="st0" d="M159.9,144c1.4,1.9,1.2,4.6-.5,6.2-3,2.9-6.3,5.7-9.7,8.1-14,10-31.1,9.3-49.6,9.3s-35.6.7-49.6-9.3c-3.4-2.5-6.7-5.2-9.7-8.1s-1.9-4.3-.5-6.2c2.3-3.1,5.6-5.2,10.4-7,7.7-2.9,13.4-4.4,21.2-7,4.8-1.6,10-6.5,12.2-11.1,2.1-4.5,2.2-9.6,2-14.7-1.1-1-2-1.9-2.7-2.8-2.3-3.2-5.1-8.6-6.5-14.7-.7.3-1.7.2-2.4-.3-1-.7-1.4-2-1.7-3.1-.9-3-1.5-6.1-1.9-9.2-.1-.8-.2-1.6,0-2.3.2-.8.6-1.5,1.3-1.8,0,0,.1,0,.2,0-.1-5.8.3-11.6,1.2-17.3.7-4.1,1.7-8.2,3.9-11.8,2.3-3.8,6-6.9,10.3-8.8.4-.2.9-.4,1.4-.5,0,0,0,0,0,0,0-6.1,4.9-11,11-11s11,4.9,11,11,0,0,0,0c.5.2,1,.3,1.4.5,4.3,1.8,8,4.9,10.3,8.8,2.2,3.6,3.2,7.7,3.9,11.8,1,5.7,1.4,11.5,1.2,17.3,0,0,.1,0,.2,0,.7.3,1.2,1,1.3,1.8.2.8,0,1.6,0,2.3-.4,3.1-1.1,6.2-1.9,9.2-.3,1.2-.8,2.4-1.7,3.1-.7.5-1.6.6-2.4.3-1.4,6.2-4.2,11.6-6.5,14.7-.6.9-1.6,1.9-2.7,2.8-.3,5.1-.1,10.2,2,14.7,2.1,4.6,7.3,9.5,12.2,11.1,7.8,2.6,13.5,4.1,21.2,7,4.8,1.8,8.1,3.9,10.4,7Z"/>
</svg>