<?xml version="1.0" encoding="UTF-8"?>
<svg id="Layer_2" xmlns="http://www.w3.org/2000/svg" version="1.1" viewBox="0 0 200 200">
  <!-- Generator: Adobe Illustrator 29.5.0, SVG Export Plug-In . SVG Version: 2.1.0 Build 137)  -->
  <defs>
    <style>
      .st0 {
        fill: #fff;
      }

      .st1 {
        fill: #ff5e14;
      }

      .st2 {
        fill: #cc3a00;
      }
    </style>
  </defs>
  <g id="Objects">
    <g>
      <path class="st1" d="M200,100c0,5.9-.5,11.7-1.5,17.4-8.2,46.9-49.2,82.6-98.5,82.6s-3,0-4.5,0C42.3,197.5,0,153.7,0,100S44.8,0,100,0s100,44.8,100,100Z"/>
      <path class="st2" d="M198.5,117.4c-8.2,46.9-49.2,82.6-98.5,82.6s-3,0-4.5,0c-22.3-22.3-40.7-40.7-40.8-40.9-2.9-2.5-4.5-6.3-4-10.3,1-8.8,3.8-17.6,10.2-21.6,11.8-7.3,23.5-10.5,23.5-10.5.4-1.3.9-5.5,1.1-9.9-1.5-1.6-3-3.2-4.5-4.7-2.5-2.5-3.1-5.9-3.9-10.1-.6-.2-.9-.7-1.2-1.2,0,0,0,0,0,0-.6-.2-.9-.7-1.2-1.2,0,0,0,0,0,0-.6-.2-.9-.7-1.2-1.2-.4-.5-.5-1.2-.6-1.8-.5-2.3-.9-4.5-1.4-6.8-.4-1.7-.7-3.5-.5-5.2.1-.8.4-1.7,1.1-2.1.7-.5,1.8-.4,2.1.4,0,0-1.1-10.7-1.1-9.8-.9-1-1.6-3.2-1.3-4.9.3-1.7.8-3.3,1.1-5,.3-1.9.3-3.8.8-5.6.8-2.6,2.6-4.6,4.4-6.6,1.3-1.4,2.6-2.7,4.1-3.9,2.9-2.4,6.4-4.1,10.2-4.6,1.2-.1,2.4-.1,3.6-.1,1.4,0,2.7,0,4.1,0,1.4,0,2.7,0,4.1,0,1.2,0,2.4,0,3.6.1,3.8.4,7.3,2.2,10.2,4.6,1.3,1,2.5,2.2,3.6,3.4.2.2,42.6,42.6,77,77h0Z"/>
      <path class="st0" d="M142.1,161c-7.4,3-20.7,6.6-42.1,6.6s-34.7-3.6-42.1-6.6c-4.9-2-7.9-7-7.3-12.3,1-8.8,3.8-17.6,10.2-21.6,11.8-7.3,23.5-10.5,23.5-10.5.4-1.3.9-5.5,1.1-9.9-1.5-1.6-3-3.2-4.5-4.7-3-2.9-3.3-7.1-4.4-12.5-2,.6-2.6-.4-3.1-1.2-.4-.5-.5-1.2-.6-1.8-.5-2.3-.9-4.5-1.4-6.8-.4-1.7-.7-3.5-.5-5.2.1-.8.4-1.7,1.1-2.1.7-.5,1.8-.4,2.1.4,0,0-1.1-10.7-1.1-9.8-.9-1-1.6-3.2-1.3-4.9.3-1.7.8-3.3,1.1-5,.3-1.9.3-3.8.8-5.6.8-2.6,2.6-4.6,4.4-6.6,1.3-1.4,2.6-2.7,4.1-3.9,2.9-2.4,6.4-4.1,10.2-4.6,1.2-.1,2.4-.1,3.6-.1,1.4,0,2.7,0,4.1,0,1.4,0,2.7,0,4.1,0,1.2,0,2.4,0,3.6.1,3.8.4,7.3,2.2,10.2,4.6,1.5,1.2,2.8,2.5,4.1,3.9,1.8,1.9,3.6,4,4.4,6.6.5,1.8.5,3.7.8,5.6.3,1.7.8,3.3,1.1,5,.3,1.7-.4,3.9-1.3,4.9,0-.9-1.1,9.8-1.1,9.8.3-.8,1.5-.9,2.1-.4.7.5,1,1.3,1.1,2.1.2,1.7-.1,3.5-.5,5.2-.5,2.3-.9,4.5-1.4,6.8-.1.6-.3,1.3-.6,1.8-.5.8-1.1,1.7-3.1,1.2-1.1,5.4-1.4,9.6-4.4,12.5-1.6,1.5-3,3.2-4.5,4.7.2,4.3.7,8.6,1.1,9.9,0,0,11.7,3.1,23.5,10.5,6.4,4,9.2,12.8,10.2,21.6.6,5.3-2.4,10.3-7.3,12.3h0Z"/>
    </g>
  </g>
</svg>